<?xml version="1.0" encoding="UTF-8" standalone="no"?>
<svg
   version="1.1"
   width="512px"
   height="512px"
   style="shape-rendering:geometricPrecision; text-rendering:geometricPrecision; image-rendering:optimizeQuality; fill-rule:evenodd; clip-rule:evenodd"
   id="svg32"
   sodipodi:docname="icon-maskable.svg"
   xml:space="preserve"
   inkscape:version="1.4.3 (0d15f75, 2025-12-25)"
   xmlns:inkscape="http://www.inkscape.org/namespaces/inkscape"
   xmlns:sodipodi="http://sodipodi.sourceforge.net/DTD/sodipodi-0.dtd"
   xmlns="http://www.w3.org/2000/svg"
   xmlns:svg="http://www.w3.org/2000/svg"><defs
     id="defs32" /><sodipodi:namedview
     id="namedview32"
     pagecolor="#ffffff"
     bordercolor="#000000"
     borderopacity="0.25"
     inkscape:showpageshadow="2"
     inkscape:pageopacity="0.0"
     inkscape:pagecheckerboard="0"
     inkscape:deskcolor="#d1d1d1"
     inkscape:zoom="0.4440918"
     inkscape:cx="-2630.0869"
     inkscape:cy="1237.3568"
     inkscape:window-width="3840"
     inkscape:window-height="2054"
     inkscape:window-x="-11"
     inkscape:window-y="-11"
     inkscape:window-maximized="1"
     inkscape:current-layer="svg32" /><path
     style="fill:#fd7413;stroke-width:0.88738;fill-opacity:1"
     d="m 240.23709,354.97296 c -46.54094,-7.64084 -86.08579,-43.61543 -97.50717,-88.70385 l -2.14328,-8.4614 -5.97535,-0.35483 -5.97527,-0.35483 -0.37633,26.97623 -0.37625,26.97623 -2.34056,3.87045 -2.34046,3.87044 -4.83631,2.34121 -4.83631,2.34122 h -7.65791 -7.658004 l -5.191616,-2.66214 -5.191705,-2.66214 -2.158019,-4.12265 -2.158108,-4.12264 v -72.52583 -72.52582 l 1.62222,-3.8073 c 0.89226,-2.09403 3.063679,-5.13839 4.825394,-6.76526 l 3.203086,-2.95793 11.443302,-0.35008 11.44321,-0.35009 3.78103,2.36415 c 2.07958,1.30029 4.74172,3.82871 5.9159,5.61872 l 2.13486,3.25455 0.37074,29.33919 0.37075,29.3392 h 15.26019 15.26018 l 2.26308,2.42909 2.263,2.42909 0.62179,12.65637 0.62178,12.65636 1.90095,7.09904 c 1.04551,3.90447 4.26652,11.89089 7.15787,17.7476 l 5.25702,10.64856 6.00587,7.36515 c 3.30328,4.05082 9.32024,10.07357 13.37104,13.38387 l 7.36517,6.01874 10.64856,5.20905 c 12.02249,5.88117 21.70469,8.48832 35.49519,9.55795 l 9.46533,0.73417 10.92214,-1.90396 c 13.43236,-2.34157 23.94532,-6.45439 35.03171,-13.70491 l 8.47218,-5.54084 8.40978,-9.02044 8.40988,-9.02045 5.51445,-11.00455 5.51444,-11.00455 2.4883,-9.46539 2.4883,-9.46538 0.0417,-14.19808 0.0417,-14.19807 -2.46417,-10.05698 c -4.46396,-18.21862 -12.56237,-32.92028 -25.17079,-45.69449 -16.08598,-16.29749 -35.49005,-25.42754 -57.92541,-27.25515 l -8.8738,-0.72287 -2.07061,-1.80025 -2.07053,-1.80026 v -10.38066 -10.38067 l 1.85924,-1.85928 1.85933,-1.85927 8.49347,0.0155 8.49346,0.0155 10.66391,2.20101 c 13.19969,2.72437 24.39718,7.07544 36.51302,14.18804 l 9.31527,5.46857 10.29973,9.68119 10.29982,9.6812 6.2082,8.98045 c 10.95746,15.85057 19.88494,38.30426 22.0182,55.37868 l 0.84852,6.79123 3.70898,-8.9e-4 3.70898,-8.8e-4 v -29.33669 -29.33668 l 2.13486,-3.256 c 1.17418,-1.7908 3.83632,-4.29345 5.91589,-5.56145 l 3.78104,-2.30544 10.85354,-0.004 10.85355,-0.004 3.6828,3.09887 c 2.02554,1.70437 4.46237,4.60629 5.41506,6.4487 l 1.73225,3.34982 v 72.86191 72.86192 l -1.64085,3.92722 -1.64094,3.92721 -3.85931,2.74808 -3.8593,2.74809 -9.20373,0.53279 -9.20363,0.5328 -5.14015,-2.48828 -5.14006,-2.48826 -2.34047,-3.87045 -2.34055,-3.87044 v -26.9183 -26.91719 h -4.39129 -4.39129 l -1.33533,5.02848 c -9.33736,35.16295 -29.62686,62.35753 -59.2673,79.43747 -7.72411,4.45094 -18.93074,8.72899 -30.00134,11.45277 l -9.46532,2.32885 -13.01494,0.53554 -13.01493,0.53555 z m 12.55394,-43.82262 -1.39008,-1.67493 0.35779,-6.78061 0.35788,-6.7806 2.07053,-1.29959 2.07052,-1.2996 2.07061,1.29898 2.07053,1.29899 0.35637,6.05434 0.35646,6.05435 -1.28546,2.4018 -1.28537,2.4018 h -2.17985 c -1.19894,0 -2.80536,-0.75372 -3.56993,-1.67493 z M 56.893041,298.14015 c -1.952235,-0.86768 -4.880589,-3.01898 -6.507511,-4.78067 l -2.957904,-3.20307 -0.332323,-50.77036 -0.332235,-50.77037 1.868644,-3.61364 c 1.027852,-1.98751 3.573302,-4.65296 5.656603,-5.92324 l 3.78787,-2.3096 7.802998,-0.004 7.803086,-0.004 1.958093,2.16372 1.958181,2.16372 v 56.90906 56.90908 l -3.117454,2.45222 -3.117544,2.45222 -5.460492,-0.0463 c -3.003337,-0.0255 -7.057776,-0.75624 -9.010012,-1.62391 z m 381.141299,-0.782 -3.11746,-2.45223 v -56.44318 -56.44317 l 1.84185,-2.62961 1.84184,-2.62961 7.91934,0.004 7.91933,0.004 3.78787,2.30961 c 2.0833,1.27027 4.62875,3.93573 5.65651,5.92324 l 1.86874,3.61364 -0.33233,50.77037 -0.33223,50.77036 -2.95799,3.2047 c -3.88691,4.21117 -9.36133,6.44925 -15.77522,6.44925 h -5.20271 z m -408.739611,-41.69724 -2.572603,-2.7384 v -14.41762 -14.41761 l 2.336205,-2.33625 c 2.660453,-2.66039 7.458427,-4.16045 10.08445,-3.15277 l 1.777422,0.68206 v 19.55949 19.55949 H 36.393679 31.867332 Z M 471.59522,239.01488 v -19.38443 l 2.85807,-0.54635 c 3.63134,-0.69418 9.56871,1.76401 10.57136,4.37679 0.42275,1.1017 0.76865,8.25588 0.76865,15.89817 v 13.89506 l -2.73837,2.5726 -2.73845,2.57258 h -4.36059 -4.36067 z m -224.2614,12.82124 -3.59965,-1.7766 -3.20362,-4.94074 -3.20362,-4.94074 v -5.50406 -5.50407 l 2.69027,-3.99212 c 1.4797,-2.19567 4.53495,-5.23524 6.78952,-6.75461 l 4.09925,-2.76247 6.53955,0.26689 6.53945,0.26689 19.40079,-19.71707 19.40079,-19.71707 h 2.52876 c 3.29502,0 5.36839,2.15738 5.36839,5.58604 v 2.74643 l -17.73811,22.15937 -17.73801,22.15937 -0.01,5.34274 -0.01,5.34274 -2.19077,4.12264 c -1.20497,2.26746 -3.94582,5.32062 -6.09088,6.78479 l -3.90004,2.66214 -6.03667,-0.027 -6.03675,-0.027 z m -66.12311,-13.04369 c -1.02262,-1.0226 -1.85924,-2.31564 -1.85924,-2.87342 0,-0.55778 0.83662,-1.85082 1.85924,-2.87342 l 1.85924,-1.85927 h 6.93008 6.92999 l 1.85924,1.85927 c 2.33514,2.33509 2.33514,3.41175 0,5.74684 l -1.85924,1.85927 h -6.92999 -6.93008 z m 133.30673,0.48705 c -1.95383,-1.95376 -1.85932,-5.1118 0.20401,-6.82426 l 1.67147,-1.38718 7.3751,0.35493 7.37511,0.35493 1.30019,2.07055 1.3001,2.07056 -1.30064,2.07055 -1.30063,2.07055 -7.57867,0.34338 -7.57867,0.34338 z m -61.76767,-69.54039 c -0.67361,-1.2587 -1.22476,-4.22206 -1.22476,-6.58524 0,-7.54609 4.12853,-11.37104 8.0456,-7.45399 l 1.41981,1.41981 v 6.03418 6.03419 l -1.41981,1.4198 c -2.13193,2.13193 -5.44043,1.71053 -6.82084,-0.86875 z"
     id="path56" /></svg>
