<?xml version="1.0" encoding="UTF-8" standalone="no"?>
<svg
   width="1024"
   height="1024"
   viewBox="0 0 270.93333 270.93333"
   version="1.1"
   id="svg1"
   xml:space="preserve"
   xmlns="http://www.w3.org/2000/svg"
   xmlns:svg="http://www.w3.org/2000/svg"><defs
     id="defs1" /><rect
     width="270.93333"
     height="270.93333"
     fill="#ffffff"
     id="background" /><g
     id="layer1"><g
       id="g3"
       transform="translate(-4.9018872,8.8085288)"><circle
         style="fill:#3c5843;fill-opacity:1;stroke:none;stroke-width:0.600001;stroke-miterlimit:0;stroke-dasharray:none;stroke-opacity:1"
         id="path2-1"
         cx="139.70076"
         cy="188.10852"
         r="8.1105204" /><circle
         style="fill:#839d80;fill-opacity:1;stroke:none;stroke-width:0.600001;stroke-miterlimit:0;stroke-dasharray:none;stroke-opacity:1"
         id="path2-5"
         cx="111.74717"
         cy="188.06285"
         r="8.1105204" /><path
         style="fill:#192f24;fill-opacity:1;stroke:none;stroke-width:0.600075;stroke-miterlimit:0;stroke-dasharray:none;stroke-opacity:1"
         d="m 186.2046,195.96631 h 20.74363 l -48.9219,-59.27278 c 0,0 33.9437,-9.79339 33.54013,-36.959622 -0.40357,-27.166234 -19.20218,-42.423547 -32.93869,-42.383868 -13.73651,0.03968 -69.796218,0 -69.796218,0 v 17.327034 c 0,0 45.356728,0 66.611398,0 9.43517,0 17.93185,11.178266 17.93185,23.060295 0,11.882031 -8.32355,20.808181 -17.93185,20.808181 -10.96743,0 -35.61797,0.30326 -35.61797,0.30326 z"
         id="path1" /><circle
         style="fill:#bcc7af;fill-opacity:1;stroke:none;stroke-width:0.600001;stroke-miterlimit:0;stroke-dasharray:none;stroke-opacity:1"
         id="path2"
         cx="83.716614"
         cy="188.2332"
         r="8.1105204" /></g></g></svg>
